<svg version="1.1" id="Layer_1" xmlns="http://www.w3.org/2000/svg" x="0" y="0" viewBox="0 0 512 512" style="enable-background:new 0 0 512 512" xml:space="preserve"><style>.st1{fill:#edf3fc}.st2{fill:#330d84}.st3{fill:#ffbe1b}.st10{fill:#5d8ef9}</style><path class="st1" d="M255.999 40.928c-118.778 0-215.071 96.294-215.071 215.074 0 118.776 96.292 215.068 215.071 215.068S471.07 374.778 471.07 256.002c0-118.78-96.293-215.074-215.071-215.074z"/><path class="st1" d="M255.999 1C115.391 1 1 115.392 1 256.002 1 396.609 115.391 511 255.999 511S511 396.609 511 256.002C511 115.392 396.607 1 255.999 1zm0 501.831c-136.103 0-246.83-110.727-246.83-246.829 0-136.104 110.727-246.834 246.83-246.834 136.102 0 246.832 110.729 246.832 246.834 0 136.102-110.73 246.829-246.832 246.829z"/><path class="st10" d="M419.794 344.294a28.165 28.165 0 0 1-20.474-20.471l-.428-1.72-.433 1.72a28.154 28.154 0 0 1-20.471 20.471l-1.721.433 1.721.433a28.155 28.155 0 0 1 20.471 20.469l.433 1.719.428-1.719a28.164 28.164 0 0 1 20.474-20.469l1.721-.433-1.721-.433z"/><path style="fill:#2ef39e" d="M374.984 388.653H137.016l30.302-112.569h177.364z"/><path class="st10" d="M374.984 388.653H137.016l30.302-112.569h177.364z"/><path style="fill:#8ac9f9" d="m351.335 300.797-193.84 11.781-10.245 38.059 79.876-7.463-30.777 45.479h45.45l42.23-43.571 76.111-11.574z"/><path class="st2" d="M343.117 190.464c0 61.438-87.117 154.538-87.117 154.538s-87.117-93.1-87.117-154.538c0-48.113 39.004-87.117 87.117-87.117s87.117 39.004 87.117 87.117z"/><circle class="st3" cx="256" cy="193.873" r="37.877"/><path class="st3" d="m392.172 155.64 1.415.355-1.415.355a23.15 23.15 0 0 0-16.833 16.835l-.357 1.413-.354-1.413a23.154 23.154 0 0 0-16.838-16.835l-1.411-.355 1.411-.355a23.156 23.156 0 0 0 16.838-16.833l.354-1.413.357 1.413a23.153 23.153 0 0 0 16.833 16.833z"/><path class="st2" d="m135.339 197.045 2.469.588-2.469.59c-14.432 3.464-25.696 14.259-29.322 28.08l-.618 2.36-.612-2.36c-3.622-13.821-14.892-24.617-29.329-28.08l-2.458-.59 2.458-.588c14.437-3.465 25.707-14.264 29.329-28.081l.612-2.362.618 2.362c3.626 13.818 14.891 24.617 29.322 28.081zM159.451 147.016l1.523.379-1.523.38a24.874 24.874 0 0 0-18.074 18.074l-.38 1.519-.378-1.519a24.869 24.869 0 0 0-18.079-18.074l-1.515-.38 1.515-.379a24.878 24.878 0 0 0 18.079-18.076l.378-1.519.38 1.519a24.881 24.881 0 0 0 18.074 18.076z"/></svg>