<svg xmlns="http://www.w3.org/2000/svg" xml:space="preserve" width="655.359" height="655.359" style="shape-rendering:geometricPrecision;text-rendering:geometricPrecision;image-rendering:optimizeQuality;fill-rule:evenodd;clip-rule:evenodd" viewBox="0 0 6.827 6.827"><defs><style>.fil1{fill:#de8887}.fil7{fill:#de8989}.fil16{fill:#e09090}.fil17{fill:#e39b9a}.fil3{fill:#e5a5a5}.fil6{fill:#e8abab}.fil2{fill:#e8acac}.fil14{fill:#eab4b4}.fil10{fill:#ebbcbc}.fil19{fill:#ebbdbd}.fil5{fill:#ecc0bf}.fil18{fill:#edc1c1}.fil20{fill:#f0c7c7}.fil23{fill:#f0c9c8}.fil24{fill:#f0cccc}.fil26{fill:#f2d3d3}.fil36{fill:#b04a4a;fill-rule:nonzero}</style></defs><g id="Layer_x0020_1"><g id="_465629696"><path id="_465602360" d="M3.413.103a3.31 3.31 0 1 1 0 6.62 3.31 3.31 0 0 1 0-6.62z" style="fill:#e08e8e"/><path id="_465602816" class="fil1" d="M.848 1.35.84 1.332c.008-.01.015-.02.023-.028l-.014.044z"/><path id="_465603056" class="fil2" d="m.103 3.424.074.129-.056.202a3.348 3.348 0 0 1-.018-.331z"/><path id="_465602936" class="fil3" d="m.177 3.553-.074-.13v-.01c0-.052.002-.104.004-.155l.07.295z"/><path id="_465602048" d="m1.188 5.863.776-.144-.09.625a3.318 3.318 0 0 1-.686-.48z" style="fill:#efc6c6"/><path id="_465601904" class="fil5" d="m.878 5.54.57-2.232.516 2.411-.776.144c-.11-.1-.214-.208-.31-.322z"/><path id="_465602072" class="fil6" d="M1.447 3.308.2 2.618c.019-.078.041-.156.066-.232l1.254-.278-.073 1.2z"/><path id="_465602000" class="fil7" d="m.84 1.333.008.016-.025.004.016-.02z"/><path id="_465601952" d="m.823 1.353.025-.004-.185.222c.05-.075.104-.147.16-.218z" style="fill:#e19797"/><path id="_465602144" d="m.663 1.571.185-.222.672.76-1.254.277c.095-.291.23-.565.397-.815z" style="fill:#e4a0a0"/><path id="_465602216" class="fil2" d="m.177 3.553-.07-.295c.01-.22.042-.433.093-.64l1.247.69-1.27.245z"/><path id="_465601448" class="fil10" d="m.207 4.238 1.24-.93-.57 2.233a3.3 3.3 0 0 1-.67-1.303z"/><path id="_465601328" d="m.12 3.755.057-.202 1.27-.245-1.24.93a3.298 3.298 0 0 1-.086-.483z" style="fill:#eab6b6"/><path id="_465601280" style="fill:#ecbebe" d="M2.79 4.642 1.447 3.308l.888-.257z"/><path id="_465600992" style="fill:#e7a9a9" d="m2.335 3.05-.815-.942.568-.979z"/><path id="_465601400" class="fil14" d="m1.447 3.308.073-1.2.815.943z"/><path id="_465601232" d="m4.67 2.622-.661-1.187 1.14-.84c.048.03.095.06.141.092l-.62 1.935z" style="fill:#e49e9e"/><path id="_465600944" class="fil16" d="m.848 1.35.014-.045a3.33 3.33 0 0 1 .565-.54l.66.364-1.239.22z"/><path id="_465601520" class="fil17" d="M1.52 2.108.848 1.35l1.24-.22z"/><path id="_465600920" class="fil7" d="M2.088 1.129 1.427.766c.2-.151.42-.28.652-.383l.009.746z"/><path id="_465601040" class="fil18" d="m1.964 5.72-.517-2.412L2.79 4.642z"/><path id="_465633152" class="fil19" d="m4.35 4.324-.868-.588L4.67 2.622z"/><path id="_465633080" class="fil20" d="m1.874 6.344.09-.625.602.895a3.29 3.29 0 0 1-.692-.27z"/><path id="_465632720" style="fill:#eab1b0" d="m3.482 3.736.527-2.301.66 1.187z"/><path id="_465632408" d="M2.088 1.129 2.079.383c.116-.05.235-.095.357-.133l1.087.23-1.435.649z" style="fill:#df8c8c"/><path id="_465632984" class="fil5" d="m2.79 4.642-.455-1.591 1.147.685z"/><path id="_465632576" class="fil23" d="m3.627 6.662-1.663-.943.826-1.077z"/><path id="_465632600" class="fil24" d="m2.566 6.614-.602-.895 1.663.943-.118.06a3.369 3.369 0 0 1-.943-.108z"/><path id="_465632432" class="fil14" d="m3.482 3.736-1.147-.685L4.01 1.435z"/><path id="_465632816" class="fil3" d="M2.335 3.05 2.088 1.13l1.92.306z"/><path id="_465632000" style="fill:#e19595" d="m4.009 1.435-1.921-.306L3.523.48z"/><path id="_465631904" class="fil26" d="m3.51 6.722.117-.06.026.053a3.342 3.342 0 0 1-.144.007z"/><path id="_465631880" style="fill:#f1cfce" d="m3.627 6.662-.837-2.02 1.467 1.652z"/><path id="_465631856" class="fil23" d="M4.257 6.294 2.79 4.642l1.56-.318z"/><path id="_465631616" d="m3.653 6.715-.026-.053.63-.368-.039.33a3.303 3.303 0 0 1-.565.09z" style="fill:#f3d6d5"/><path id="_465632264" class="fil18" d="m2.79 4.642.692-.906.867.588z"/><path id="_465631064" class="fil16" d="M4.009 1.435 3.523.48 4.878.444c.093.046.184.097.272.151l-1.141.84z"/><path id="_465630872" class="fil24" d="m4.257 6.294.092-1.97.971.636z"/><path id="_465631472" class="fil1" d="M3.523.48 2.436.25l.132-.038 2.177.17c.045.02.089.04.133.062L3.523.48z"/><path id="_465631424" d="M5.775 5.732 5.32 4.96l.672-.734.096 1.137c-.095.13-.2.254-.313.37z" style="fill:#f0caca"/><path id="_465631160" style="fill:#eec4c4" d="m5.32 4.96-.97-.636 1.642-.098z"/><path id="_465631112" d="M5.992 4.226 4.67 2.622l1.412-1.166c.054.073.105.148.152.225l-.242 2.545z" style="fill:#e9aeae"/><path id="_465631520" class="fil17" d="M4.67 2.622 5.29.687c.305.21.573.47.792.769L4.67 2.622z"/><path id="_465630608" class="fil26" d="m4.961 6.34-.704-.046L5.32 4.96l.455.773a3.322 3.322 0 0 1-.814.606z"/><path id="_465630272" class="fil10" d="m4.35 4.324.32-1.702 1.322 1.604z"/><path id="_465630632" d="m4.218 6.625.039-.33.704.044c-.232.124-.481.22-.743.286z" style="fill:#f4dada"/><path id="_465630536" d="m3.918.142-1.124.02a3.327 3.327 0 0 1 1.124-.02z" style="fill:#dc7e7e"/><path id="_465630104" d="M4.745.382 2.568.212a3.3 3.3 0 0 1 .226-.05l1.124-.02c.29.044.567.126.827.24z" style="fill:#de8787"/><path id="_465630704" class="fil6" d="m5.992 4.226.242-2.545c.304.493.481 1.071.489 1.69l-.731.855z"/><path id="_465630488" d="m5.992 4.226.73-.854.001.041c0 .224-.022.443-.065.655l-.666.158z" style="fill:#eab0b0"/><path id="_465630008" class="fil20" d="m6.088 5.363-.096-1.137.488.435c-.102.25-.234.486-.392.702z"/><path id="_465630416" class="fil19" d="m6.48 4.66-.488-.434.666-.158a3.29 3.29 0 0 1-.178.593z"/><path id="_465629264" class="fil36" d="M3.413 0c.943 0 1.796.382 2.414 1 .618.617 1 1.47 1 2.413 0 .943-.382 1.796-1 2.414-.618.618-1.471 1-2.414 1a3.403 3.403 0 0 1-2.413-1 3.403 3.403 0 0 1-1-2.414C0 2.471.382 1.617 1 1c.617-.618 1.47-1 2.413-1zm2.268 1.146a3.196 3.196 0 0 0-2.268-.94c-.885 0-1.687.36-2.267.94-.58.58-.94 1.382-.94 2.267 0 .886.36 1.687.94 2.268.58.58 1.382.939 2.267.939.886 0 1.687-.36 2.268-.94.58-.58.939-1.381.939-2.267 0-.885-.36-1.687-.94-2.267z"/></g><g id="_465629528"><path id="_465629240" d="M4.828 2a1.994 1.994 0 0 0-1.415-.587c-.552 0-1.052.224-1.414.586a1.994 1.994 0 0 0-.586 1.414c0 .553.224 1.053.586 1.415.362.361.862.585 1.414.585.553 0 1.053-.224 1.415-.585.361-.362.585-.862.585-1.415 0-.552-.224-1.052-.585-1.414zm-2.472.635.664 1.204.015.029.032.01 1.305.433.201.067-.102-.186-.664-1.204-.016-.029-.03-.01-1.306-.433-.201-.067.102.186zm-.86.862h.584V3.33h-.583v.167zm1.834 1.25v.583h.167v-.583H3.33zm1.417-1.25h.583V3.33h-.583v.167zm-1.417-2v.583h.167v-.583H3.33z" style="fill:#b04a4a"/><path id="_465629960" class="fil36" d="m3.264 3.282-.004.004a.198.198 0 0 0 .022.276l.004.004a.198.198 0 0 0 .276-.02l.004-.006a.198.198 0 0 0-.02-.276L3.54 3.26a.198.198 0 0 0-.276.022z"/></g></g></svg>